<?xml version="1.0" standalone="no"?>
<!DOCTYPE svg PUBLIC "-//W3C//DTD SVG 20010904//EN"
 "http://www.w3.org/TR/2001/REC-SVG-20010904/DTD/svg10.dtd">
<svg version="1.0" xmlns="http://www.w3.org/2000/svg"
 width="259.000000pt" height="259.000000pt" viewBox="0 0 259.000000 259.000000"
 preserveAspectRatio="xMidYMid meet">
<metadata>
Created by potrace 1.11, written by Peter Selinger 2001-2013
</metadata>
<g transform="translate(0.000000,259.000000) scale(0.100000,-0.100000)"
fill="#000000" stroke="none">
<path d="M703 2165 c-16 -7 -36 -19 -44 -28 -29 -28 -185 -107 -213 -107 -30
0 -89 -36 -81 -50 3 -4 -2 -14 -11 -21 -14 -12 -15 -38 -9 -224 4 -115 9 -212
11 -214 3 -3 39 -6 82 -7 42 -1 94 -2 115 -3 l37 -1 0 -48 0 -47 -62 -12 c-43
-8 -64 -9 -69 -2 -9 15 -78 17 -91 2 -6 -7 -8 -60 -6 -132 l3 -120 -40 -3 -40
-3 -1 -50 c0 -39 8 -64 34 -112 30 -56 33 -70 32 -135 0 -40 1 -107 3 -148 2
-41 -1 -81 -6 -87 -6 -9 -6 -23 1 -40 9 -23 10 -75 3 -135 -1 -5 -23 -8 -51
-8 -47 0 -63 -11 -40 -25 14 -9 198 -16 360 -15 74 0 229 0 345 -1 116 -1 217
-1 225 -1 115 4 464 4 683 -1 152 -3 275 -3 273 1 -2 4 30 4 72 1 80 -8 152
-2 152 11 0 17 -29 29 -80 32 l-55 3 -6 55 c-4 30 -10 141 -14 245 -8 180 -7
192 13 231 11 22 24 58 28 79 9 52 44 126 55 119 12 -7 7 49 -5 58 -6 4 -6 18
1 40 24 71 61 165 82 205 36 72 25 120 -31 128 -13 2 -33 7 -45 10 -15 5 -23
3 -23 -4 0 -13 -83 -3 -88 10 -2 4 -9 6 -16 3 -7 -3 -18 2 -25 10 -10 11 -9
19 0 35 11 17 10 23 -5 40 -10 11 -34 23 -52 27 -34 6 -47 35 -24 49 6 4 8 11
4 16 -9 15 17 65 40 75 26 11 33 44 12 56 -9 5 -16 22 -16 38 0 20 -6 31 -19
35 -12 3 -21 17 -23 32 -2 14 -10 29 -18 33 -8 4 -29 13 -46 22 -19 9 -38 12
-52 7 -16 -6 -29 -2 -50 16 -16 13 -40 27 -54 30 -32 8 -68 -9 -68 -33 0 -15
-2 -15 -10 -2 -8 13 -14 10 -36 -14 -22 -23 -24 -30 -13 -37 11 -7 11 -9 -2
-9 -23 0 -51 -34 -43 -54 4 -10 -5 -27 -25 -48 -27 -27 -51 -80 -51 -112 0
-27 45 -98 67 -107 l25 -9 -23 -19 c-21 -17 -22 -22 -12 -55 11 -35 10 -38
-19 -59 -16 -12 -33 -21 -36 -21 -4 1 -18 -6 -32 -16 -14 -9 -35 -20 -46 -24
-12 -4 -42 -21 -65 -38 -24 -18 -53 -32 -64 -33 -12 0 -20 -7 -20 -17 0 -9
-13 -30 -29 -47 -33 -34 -46 -104 -26 -142 10 -19 10 -22 0 -12 -9 9 -17 9
-31 0 -10 -6 -21 -8 -25 -5 -3 4 -6 51 -5 104 2 103 -6 122 -40 101 -14 -9
-21 -9 -30 0 -7 7 -19 9 -28 4 -9 -4 -46 -6 -83 -3 l-68 4 0 58 0 57 38 6 c20
3 81 11 135 18 l98 12 -6 216 c-4 118 -11 221 -16 227 -5 7 -22 15 -37 19 -14
3 -47 16 -72 27 -25 12 -67 27 -95 34 -27 7 -90 26 -140 43 -96 33 -169 38
-222 16z m19 -137 c-5 -5 -7 4 -4 22 3 23 0 30 -12 30 -19 0 -22 -26 -3 -33 9
-4 9 -6 -1 -6 -14 -1 -32 39 -32 69 0 11 12 25 28 32 l27 13 3 -59 c2 -32 -1
-63 -6 -68z m-72 52 c0 -11 -2 -20 -4 -20 -2 0 -6 9 -9 20 -3 11 -1 20 4 20 5
0 9 -9 9 -20z m-21 -13 c0 -9 -2 -9 -6 0 -3 10 -10 10 -26 2 -21 -10 -21 -9
-3 5 20 16 37 13 35 -7z m11 -17 c5 0 8 -9 7 -21 -1 -18 -3 -18 -13 -4 -10 13
-13 13 -17 2 -3 -8 0 -20 6 -27 9 -10 9 -11 0 -6 -7 4 -13 2 -13 -3 0 -6 -5
-11 -11 -11 -6 0 -9 6 -6 14 5 13 -14 39 -24 33 -3 -1 4 6 15 16 11 10 26 15
33 12 8 -3 18 -5 23 -5z m-88 -44 c13 4 25 7 27 8 10 3 9 -63 -2 -71 -16 -13
-58 -23 -52 -13 3 4 -2 11 -11 14 -8 3 -12 10 -9 16 3 5 -2 10 -12 10 -16 1
-16 2 -2 13 9 7 14 19 11 27 -4 13 -3 13 11 2 10 -9 25 -11 39 -6z m-125 -11
c0 -8 -4 -12 -9 -9 -5 3 -6 10 -3 15 9 13 12 11 12 -6z m1467 -17 c-3 -4 -12
-8 -20 -8 -8 0 -13 4 -10 8 3 5 12 9 20 9 8 0 13 -4 10 -9z m-656 -55 c-2 -22
-9 -38 -18 -40 -13 -4 -13 -3 0 6 11 8 12 11 2 11 -8 0 -25 -9 -39 -20 -14
-11 -33 -20 -42 -20 -9 0 -1 8 18 17 19 9 30 18 24 20 -11 4 36 62 50 63 5 0
7 -17 5 -37z m580 14 c2 -10 -3 -17 -13 -17 -9 0 -13 4 -10 10 3 6 -1 7 -9 4
-10 -4 -16 -1 -16 8 0 21 44 15 48 -5z m55 9 c9 9 48 -16 42 -27 -9 -13 -49
-11 -63 3 -17 17 -16 44 1 29 8 -6 16 -8 20 -5z m-1253 -10 c0 -2 -7 -7 -16
-10 -8 -3 -12 -2 -9 4 6 10 25 14 25 6z m109 -112 c1 -58 4 -110 7 -115 3 -5
0 -9 -5 -9 -6 0 -11 -5 -11 -11 0 -5 4 -8 8 -5 4 2 9 -4 9 -15 2 -21 -40 -45
-58 -33 -14 8 -11 26 4 18 10 -6 10 -4 0 7 -16 17 -17 81 -1 97 9 9 9 12 -1
12 -8 0 -11 16 -9 54 2 35 7 52 14 49 14 -5 27 24 17 39 -3 7 -1 8 5 4 7 -4
12 -2 12 3 0 6 2 11 4 11 2 0 5 -48 5 -106z m-48 73 c-10 -9 -11 -8 -5 6 3 10
9 15 12 12 3 -3 0 -11 -7 -18z m-145 4 c-6 -9 -46 -22 -46 -15 0 3 10 9 23 14
29 11 29 11 23 1z m114 -50 l0 -48 -62 -23 c-35 -13 -70 -25 -78 -28 -11 -4
-11 -2 3 12 9 9 17 22 17 27 0 5 4 8 8 7 14 -5 82 47 82 62 0 13 1 13 10 0 8
-12 10 -9 10 13 0 15 2 27 5 27 3 0 5 -22 5 -49z m490 45 c0 -2 -7 -7 -16 -10
-8 -3 -12 -2 -9 4 6 10 25 14 25 6z m-734 -28 c4 -6 3 -8 -4 -4 -7 4 -10 -1
-9 -14 1 -10 7 -22 15 -25 7 -2 11 -1 9 3 -3 4 -1 16 3 27 4 11 8 -44 8 -123
-1 -122 -3 -141 -15 -131 -10 9 -11 14 -3 19 6 4 10 29 9 58 -1 28 -6 49 -11
46 -5 -3 -6 -9 -3 -14 3 -5 1 -11 -5 -15 -5 -3 -10 3 -10 13 0 11 6 22 14 25
21 8 14 72 -7 71 -13 -1 -17 7 -17 37 0 38 12 50 26 27z m81 -30 c-3 -8 -6 -5
-6 6 -1 11 2 17 5 13 3 -3 4 -12 1 -19z m753 10 c-1 -29 -19 -40 -66 -40 -95
1 -100 2 -84 12 9 5 19 5 26 -1 8 -7 17 -5 28 6 9 9 21 13 27 9 8 -5 9 -3 4 6
-5 9 -2 10 11 6 11 -3 26 -1 34 4 19 12 20 12 20 -2z m-724 -53 c-3 -20 -13
-28 -26 -20 -8 5 -8 11 1 21 15 18 28 18 25 -1z m724 -20 c11 -13 11 -18 0
-28 -10 -9 -11 -9 -6 1 8 14 -10 17 -19 2 -3 -5 -12 -10 -18 -10 -7 0 -6 4 3
10 8 5 12 12 8 15 -3 3 -12 -1 -20 -9 -9 -9 -20 -11 -28 -6 -8 5 -18 6 -22 4
-4 -3 -8 1 -8 10 0 27 89 36 110 11z m-837 -15 c-3 -11 -7 -20 -9 -20 -2 0 -4
9 -4 20 0 11 4 20 9 20 5 0 7 -9 4 -20z m246 -42 c-1 -35 1 -70 5 -79 6 -14
-3 -20 -41 -32 -75 -25 -120 -30 -128 -17 -8 13 14 32 27 24 19 -12 6 16 -14
30 -12 9 -17 16 -10 16 6 0 12 7 12 15 0 8 4 15 10 15 5 0 7 7 4 15 -4 8 -11
12 -18 8 -7 -4 -7 -1 1 7 9 10 131 58 151 60 2 0 2 -28 1 -62z m1249 33 c-10
-17 -10 -23 -1 -29 12 -8 12 -49 0 -44 -4 1 -13 2 -19 2 -8 0 -5 7 6 15 17 13
17 15 3 21 -16 6 -16 8 0 35 9 15 19 27 21 25 2 -2 -3 -14 -10 -25z m44 -16
c-2 -14 -6 -25 -8 -25 -2 0 -4 11 -4 25 0 14 4 25 9 25 4 0 6 -11 3 -25z
m-695 -111 c-6 -7 -182 17 -191 26 -5 5 7 5 27 0 28 -6 37 -4 41 7 4 9 13 13
22 9 10 -4 14 -1 12 6 -5 15 -28 18 -45 5 -8 -5 -20 -3 -32 6 -19 13 -13 15
72 28 l92 15 3 -49 c2 -27 1 -51 -1 -53z m-844 41 c4 -8 3 -16 -1 -19 -4 -3
-9 4 -9 15 -2 23 3 25 10 4z m7 -99 c0 -3 -4 -8 -10 -11 -5 -3 -10 -1 -10 4 0
6 5 11 10 11 6 0 10 -2 10 -4z m1140 -212 c0 -8 -5 -12 -10 -9 -6 4 -8 11 -5
16 9 14 15 11 15 -7z m-67 -11 c-3 -7 -9 -10 -14 -7 -14 8 -11 21 5 21 8 0 12
-6 9 -14z m-317 -46 c-1 -11 -8 -22 -16 -24 -12 -4 -13 -3 -1 5 7 5 10 15 6
21 -4 8 -11 9 -19 2 -7 -6 -17 -6 -26 -1 -16 10 -33 3 -25 -11 4 -5 -29 -9
-79 -9 -64 0 -86 3 -86 13 0 8 15 14 37 15 21 2 39 5 42 8 2 2 41 4 86 3 76
-1 82 -3 81 -22z m-516 -13 c0 -8 -3 -14 -7 -15 -5 0 -45 -6 -91 -13 -86 -13
-103 -8 -95 25 5 18 14 20 99 18 72 -1 94 -5 94 -15z m1368 -66 c-3 -7 4 -19
14 -28 18 -14 17 -15 -14 -13 -45 2 -45 2 -28 13 8 5 10 10 4 10 -25 0 -21 26
3 28 16 1 23 -3 21 -10z m-628 -14 c0 -2 -15 -4 -32 -4 -23 0 -29 3 -19 9 12
8 51 4 51 -5z m668 -2 c2 -7 -2 -10 -12 -6 -9 3 -16 11 -16 16 0 13 23 5 28
-10z m-145 -7 c-3 -9 -8 -14 -10 -11 -3 3 -2 9 2 15 9 16 15 13 8 -4z m-1070
-25 c4 -16 0 -20 -16 -19 -12 0 -16 3 -9 6 6 2 12 11 12 19 0 20 7 17 13 -6z
m337 5 c11 -13 0 -15 -86 -15 -55 0 -116 -3 -136 -6 -31 -5 -38 -3 -38 9 0 19
28 23 156 25 71 2 94 -1 104 -13z m-473 -12 c3 -8 -20 -12 -74 -15 -117 -5
-183 1 -177 15 6 17 246 17 251 0z m1360 -20 c-3 -10 -5 -4 -5 12 0 17 2 24 5
18 2 -7 2 -21 0 -30z m-734 20 c-7 -2 -19 -2 -25 0 -7 3 -2 5 12 5 14 0 19 -2
13 -5z m611 -24 c-2 -4 -47 -7 -100 -5 -52 1 -97 -1 -99 -4 -7 -11 -113 -12
-119 -2 -5 8 -223 7 -384 -1 -23 -1 -42 1 -42 5 0 11 86 14 432 14 175 1 315
-3 312 -7z m36 1 c0 -5 -5 -10 -11 -10 -5 0 -7 5 -4 10 3 6 8 10 11 10 2 0 4
-4 4 -10z m-930 -10 c0 -5 -7 -7 -15 -4 -8 4 -15 8 -15 10 0 2 7 4 15 4 8 0
15 -4 15 -10z m76 2 c-5 -8 -66 -4 -66 4 0 2 16 4 36 4 19 0 33 -4 30 -8z m51
2 c-3 -3 -12 -4 -19 -1 -8 3 -5 6 6 6 11 1 17 -2 13 -5z m-829 -29 c-3 -3 -9
2 -12 12 -6 14 -5 15 5 6 7 -7 10 -15 7 -18z m972 -5 c0 12 2 12 9 2 6 -11 28
-13 91 -8 45 3 80 2 76 -1 -4 -4 -14 -8 -24 -10 -36 -5 -344 -4 -349 1 -4 3
18 7 48 8 30 1 69 3 86 3 18 1 36 5 40 8 4 4 10 2 15 -5 6 -10 8 -9 8 2z m442
-4 c-3 -6 3 -6 14 -1 22 9 38 9 78 -1 21 -5 27 -4 22 5 -4 6 -2 11 3 11 6 0
11 -4 11 -8 0 -4 9 -8 20 -9 12 -1 18 3 14 9 -4 6 -1 9 6 6 8 -2 16 -10 18
-16 4 -13 -125 -15 -306 -3 -57 3 -106 3 -109 -2 -5 -8 -23 0 -23 11 0 4 58 7
129 7 76 0 127 -4 123 -9z m-652 -6 c0 -5 -10 -10 -22 -9 -22 0 -22 1 -3 9 11
5 21 9 23 9 1 1 2 -3 2 -9z m910 0 c0 -5 -15 -10 -32 -10 -25 0 -29 3 -18 10
20 13 50 13 50 0z m-1050 -10 c0 -5 -5 -10 -11 -10 -5 0 -7 5 -4 10 3 6 8 10
11 10 2 0 4 -4 4 -10z m60 6 c0 -11 -19 -15 -25 -6 -3 5 1 10 9 10 9 0 16 -2
16 -4z m162 -256 c15 -92 52 -209 68 -213 8 -2 -19 -3 -60 -3 -67 1 -80 -2
-106 -24 -49 -40 -64 -65 -66 -115 l-3 -47 -93 4 c-67 3 -96 8 -103 18 -12 20
-12 140 1 140 6 0 6 9 -1 26 -5 15 -8 78 -7 140 2 105 4 113 23 117 11 2 92 3
180 3 l159 -1 8 -45z m900 -41 l5 -47 -76 -7 c-42 -3 -86 -9 -98 -12 -21 -5
-22 -2 -16 34 3 21 7 39 8 41 2 2 29 6 61 9 32 4 69 12 83 19 14 7 26 12 27
11 1 -1 4 -23 6 -48z m1 -109 c-6 -23 -30 -25 -88 -8 l-40 12 40 7 c80 13 94
11 88 -11z m-30 -66 c26 -4 37 -10 33 -19 -2 -7 -1 -47 3 -88 l7 -75 -76 -4
c-113 -6 -117 -4 -125 52 -4 27 -2 56 3 67 7 12 7 25 1 34 -5 7 -9 22 -9 32 0
17 6 18 63 13 34 -4 79 -9 100 -12z"/>
<path d="M565 1983 c3 -3 0 -11 -5 -18 -7 -8 -5 -12 4 -12 14 0 16 22 3 32 -4
3 -5 2 -2 -2z"/>
<path d="M695 1850 c-3 -5 1 -10 9 -10 9 0 16 5 16 10 0 6 -4 10 -9 10 -6 0
-13 -4 -16 -10z"/>
<path d="M694 1743 c3 -6 2 -14 -4 -18 -12 -7 -4 -25 11 -25 11 0 7 36 -6 47
-4 5 -5 3 -1 -4z"/>
<path d="M692 1671 c16 -25 31 -27 26 -4 -2 10 -11 19 -21 21 -16 3 -17 1 -5
-17z"/>
<path d="M584 1735 c7 -18 -19 -45 -44 -45 -10 0 -22 -4 -25 -10 -3 -5 3 -10
14 -10 12 0 21 -4 21 -10 0 -5 5 -10 11 -10 5 0 7 5 4 10 -4 6 11 18 32 27 37
16 37 16 13 23 -25 7 -25 7 5 12 l30 5 -28 2 c-16 0 -25 5 -22 11 3 6 1 10 -5
10 -7 0 -10 -7 -6 -15z"/>
<path d="M546 1728 c5 -8 2 -9 -9 -5 -11 4 -17 1 -17 -8 0 -16 9 -18 34 -9 20
8 20 20 0 28 -10 4 -13 2 -8 -6z"/>
<path d="M600 1650 c-9 -6 -10 -10 -3 -10 6 0 15 5 18 10 8 12 4 12 -15 0z"/>
</g>
</svg>
